<svg width="40" height="40" viewBox="0 0 40 40" fill="none" xmlns="http://www.w3.org/2000/svg">
<rect width="40" height="40" rx="20" fill="#AD4428"/>
<path d="M9.277 10.59C9.66033 9.96133 10.2047 9.463 10.91 9.095C11.6153 8.727 12.3973 8.543 13.256 8.543C14.1147 8.543 15.0577 8.704 16.085 9.026C17.1123 9.33267 17.9097 9.486 18.477 9.486C19.443 9.486 20.5547 9.20233 21.812 8.635L21.973 8.796C20.4857 10.1453 18.3467 12.7827 15.556 16.708C14.5593 18.1187 13.4707 19.5063 12.29 20.871C11.1247 22.2357 10.1127 23.194 9.254 23.746L9.346 23.93C10.174 23.93 11.0403 24.1447 11.945 24.574C12.8497 24.988 13.6317 25.448 14.291 25.954C14.9503 26.4447 15.7247 26.897 16.614 27.311C17.5033 27.7403 18.339 27.955 19.121 27.955C19.9183 27.955 20.5777 27.541 21.099 26.713L21.375 26.782C21.1757 27.5027 20.708 28.093 19.972 28.553C19.2513 29.0283 18.5077 29.266 17.741 29.266C16.9743 29.266 16.1387 29.036 15.234 28.576C14.3447 28.116 13.532 27.6023 12.796 27.035C12.06 26.483 11.232 25.977 10.312 25.517C9.40733 25.057 8.67133 24.827 8.104 24.827C7.53667 24.827 7.00767 24.8883 6.517 25.011L6.425 24.827C8.46433 22.665 10.0513 20.9707 11.186 19.744C12.3207 18.502 13.5933 17.03 15.004 15.328C16.43 13.6107 17.6107 12.062 18.546 10.682C18.1473 10.728 17.7947 10.751 17.488 10.751C16.6447 10.751 15.6863 10.5593 14.613 10.176C13.5397 9.77733 12.7347 9.578 12.198 9.578C11.6613 9.578 11.232 9.624 10.91 9.716C10.1433 10.4213 9.76 11.717 9.76 13.603L8.173 14.845C8.173 13.2197 8.541 11.8013 9.277 10.59Z" fill="white"/>
<path d="M29.6077 27.2039L31.1747 27.3619C31.0666 28.4344 30.715 29.201 30.1198 29.6617C29.5246 30.1223 28.8092 30.3105 27.9734 30.2263C27.1516 30.1435 26.5019 29.8881 26.0244 29.4601C25.5608 29.0334 25.1191 28.3206 24.6991 27.3214L22.8198 22.9319L20.8969 23.5824L20.4863 27.6567L22.513 27.861L22.3551 29.428L18.5524 29.0448L19.8641 16.0277C18.1395 15.9665 16.8989 16.13 16.1422 16.5181C15.3994 16.9076 14.9838 17.5411 14.8953 18.4186C14.8532 18.8365 14.9087 19.1939 15.0617 19.4907C15.2161 19.7736 15.4674 19.9326 15.8157 19.9677C16.4703 20.0337 16.8531 19.5165 16.964 18.416L18.6355 18.5845C18.5443 19.4899 18.2582 20.2349 17.7771 20.8197C17.2975 21.3904 16.591 21.6288 15.6577 21.5348C14.7245 21.4407 14.0644 21.0787 13.6777 20.4488C13.2909 19.8188 13.1396 19.086 13.2238 18.2502C13.3557 16.9408 14.0489 15.9272 15.3031 15.2094C16.5574 14.4915 18.4382 14.2589 20.9455 14.5115L23.62 14.781L23.4621 16.3481L21.6443 16.1649L21.0779 21.7855L22.6957 21.2309L27.223 16.7271L26.2201 16.626L26.378 15.059L31.121 15.5369L30.9631 17.104L29.396 16.946L24.277 21.8757L26.4108 26.8818C26.7015 27.488 26.9596 27.9291 27.1851 28.2051C27.4259 28.4686 27.7273 28.6186 28.0895 28.6551C28.4517 28.6915 28.7791 28.5838 29.0719 28.3319C29.3799 28.0675 29.5585 27.6915 29.6077 27.2039ZM16.5256 28.8406L16.6836 27.2735L18.7103 27.4778L18.5524 29.0448L16.5256 28.8406Z" fill="white"/>
</svg>
